<mxfile host="Electron" modified="2023-06-20T07:18:59.198Z" agent="Mozilla/5.0 (Windows NT 10.0; Win64; x64) AppleWebKit/537.36 (KHTML, like Gecko) draw.io/21.1.2 Chrome/106.0.5249.199 Electron/21.4.3 Safari/537.36" etag="PeVbdLjoqivFFNACgo7D" version="21.1.2" type="device">
  <diagram name="备忘录模式" id="zi4y_v8kAsUc1Qk0I8Lt">
    <mxGraphModel dx="1195" dy="703" grid="1" gridSize="10" guides="1" tooltips="1" connect="1" arrows="1" fold="1" page="0" pageScale="1" pageWidth="827" pageHeight="1169" math="0" shadow="0">
      <root>
        <mxCell id="0" />
        <mxCell id="1" parent="0" />
        <mxCell id="eEgYe5TqYPnbxPunlfxC-2" value="&lt;a style=&quot;box-sizing: border-box; cursor: pointer; outline: none; -webkit-tap-highlight-color: transparent; line-height: 22.5px; font-size: 15px; text-align: start; background-color: rgb(255, 255, 255);&quot; class=&quot;color_pc_blue_text&quot; data-keyword=&quot;design mode&quot;&gt;备忘录模式实现方式的重点是在不更改原有类的基础上增加备忘录类存放记录&lt;/a&gt;" style="text;html=1;strokeColor=none;fillColor=none;align=center;verticalAlign=middle;whiteSpace=wrap;rounded=0;fontColor=#000000;fontStyle=1;fontFamily=Lucida Console;" vertex="1" parent="1">
          <mxGeometry x="60" y="150" width="570" height="70" as="geometry" />
        </mxCell>
        <mxCell id="eEgYe5TqYPnbxPunlfxC-3" value="Originator" style="swimlane;fontStyle=1;align=center;verticalAlign=top;childLayout=stackLayout;horizontal=1;startSize=26;horizontalStack=0;resizeParent=1;resizeParentMax=0;resizeLast=0;collapsible=1;marginBottom=0;whiteSpace=wrap;html=1;fontFamily=Lucida Console;" vertex="1" parent="1">
          <mxGeometry x="100" y="320" width="160" height="112" as="geometry" />
        </mxCell>
        <mxCell id="eEgYe5TqYPnbxPunlfxC-4" value="-state" style="text;strokeColor=none;fillColor=none;align=left;verticalAlign=top;spacingLeft=4;spacingRight=4;overflow=hidden;rotatable=0;points=[[0,0.5],[1,0.5]];portConstraint=eastwest;whiteSpace=wrap;html=1;fontFamily=Lucida Console;" vertex="1" parent="eEgYe5TqYPnbxPunlfxC-3">
          <mxGeometry y="26" width="160" height="26" as="geometry" />
        </mxCell>
        <mxCell id="eEgYe5TqYPnbxPunlfxC-5" value="" style="line;strokeWidth=1;fillColor=none;align=left;verticalAlign=middle;spacingTop=-1;spacingLeft=3;spacingRight=3;rotatable=0;labelPosition=right;points=[];portConstraint=eastwest;strokeColor=inherit;fontFamily=Lucida Console;" vertex="1" parent="eEgYe5TqYPnbxPunlfxC-3">
          <mxGeometry y="52" width="160" height="8" as="geometry" />
        </mxCell>
        <mxCell id="eEgYe5TqYPnbxPunlfxC-6" value="+SetMemento(in Memento)" style="text;strokeColor=none;fillColor=none;align=left;verticalAlign=top;spacingLeft=4;spacingRight=4;overflow=hidden;rotatable=0;points=[[0,0.5],[1,0.5]];portConstraint=eastwest;whiteSpace=wrap;html=1;fontFamily=Lucida Console;" vertex="1" parent="eEgYe5TqYPnbxPunlfxC-3">
          <mxGeometry y="60" width="160" height="26" as="geometry" />
        </mxCell>
        <mxCell id="eEgYe5TqYPnbxPunlfxC-11" value="+CreateMemento()" style="text;strokeColor=none;fillColor=none;align=left;verticalAlign=top;spacingLeft=4;spacingRight=4;overflow=hidden;rotatable=0;points=[[0,0.5],[1,0.5]];portConstraint=eastwest;whiteSpace=wrap;html=1;fontFamily=Lucida Console;" vertex="1" parent="eEgYe5TqYPnbxPunlfxC-3">
          <mxGeometry y="86" width="160" height="26" as="geometry" />
        </mxCell>
        <mxCell id="eEgYe5TqYPnbxPunlfxC-12" value="Memento" style="swimlane;fontStyle=1;align=center;verticalAlign=top;childLayout=stackLayout;horizontal=1;startSize=26;horizontalStack=0;resizeParent=1;resizeParentMax=0;resizeLast=0;collapsible=1;marginBottom=0;whiteSpace=wrap;html=1;fontFamily=Lucida Console;" vertex="1" parent="1">
          <mxGeometry x="390" y="320" width="160" height="112" as="geometry" />
        </mxCell>
        <mxCell id="eEgYe5TqYPnbxPunlfxC-13" value="-state" style="text;strokeColor=none;fillColor=none;align=left;verticalAlign=top;spacingLeft=4;spacingRight=4;overflow=hidden;rotatable=0;points=[[0,0.5],[1,0.5]];portConstraint=eastwest;whiteSpace=wrap;html=1;fontFamily=Lucida Console;" vertex="1" parent="eEgYe5TqYPnbxPunlfxC-12">
          <mxGeometry y="26" width="160" height="26" as="geometry" />
        </mxCell>
        <mxCell id="eEgYe5TqYPnbxPunlfxC-14" value="" style="line;strokeWidth=1;fillColor=none;align=left;verticalAlign=middle;spacingTop=-1;spacingLeft=3;spacingRight=3;rotatable=0;labelPosition=right;points=[];portConstraint=eastwest;strokeColor=inherit;fontFamily=Lucida Console;" vertex="1" parent="eEgYe5TqYPnbxPunlfxC-12">
          <mxGeometry y="52" width="160" height="8" as="geometry" />
        </mxCell>
        <mxCell id="eEgYe5TqYPnbxPunlfxC-15" value="+GetState()" style="text;strokeColor=none;fillColor=none;align=left;verticalAlign=top;spacingLeft=4;spacingRight=4;overflow=hidden;rotatable=0;points=[[0,0.5],[1,0.5]];portConstraint=eastwest;whiteSpace=wrap;html=1;fontFamily=Lucida Console;" vertex="1" parent="eEgYe5TqYPnbxPunlfxC-12">
          <mxGeometry y="60" width="160" height="26" as="geometry" />
        </mxCell>
        <mxCell id="eEgYe5TqYPnbxPunlfxC-16" value="+SetState()" style="text;strokeColor=none;fillColor=none;align=left;verticalAlign=top;spacingLeft=4;spacingRight=4;overflow=hidden;rotatable=0;points=[[0,0.5],[1,0.5]];portConstraint=eastwest;whiteSpace=wrap;html=1;fontFamily=Lucida Console;" vertex="1" parent="eEgYe5TqYPnbxPunlfxC-12">
          <mxGeometry y="86" width="160" height="26" as="geometry" />
        </mxCell>
        <mxCell id="eEgYe5TqYPnbxPunlfxC-17" value="Caretaker" style="swimlane;fontStyle=1;align=center;verticalAlign=top;childLayout=stackLayout;horizontal=1;startSize=26;horizontalStack=0;resizeParent=1;resizeParentMax=0;resizeLast=0;collapsible=1;marginBottom=0;whiteSpace=wrap;html=1;fontFamily=Lucida Console;" vertex="1" parent="1">
          <mxGeometry x="670" y="320" width="160" height="52" as="geometry" />
        </mxCell>
        <mxCell id="eEgYe5TqYPnbxPunlfxC-32" value="-Memento: Memento" style="text;strokeColor=none;fillColor=none;align=left;verticalAlign=top;spacingLeft=4;spacingRight=4;overflow=hidden;rotatable=0;points=[[0,0.5],[1,0.5]];portConstraint=eastwest;whiteSpace=wrap;html=1;fontFamily=Lucida Console;" vertex="1" parent="eEgYe5TqYPnbxPunlfxC-17">
          <mxGeometry y="26" width="160" height="26" as="geometry" />
        </mxCell>
        <mxCell id="eEgYe5TqYPnbxPunlfxC-22" value="return new Memento(state)" style="shape=note2;boundedLbl=1;whiteSpace=wrap;html=1;size=25;verticalAlign=top;align=center;fontFamily=Lucida Console;" vertex="1" parent="1">
          <mxGeometry x="80" y="500" width="190" height="60" as="geometry" />
        </mxCell>
        <mxCell id="eEgYe5TqYPnbxPunlfxC-23" value="state = m.GetState()" style="shape=note2;boundedLbl=1;whiteSpace=wrap;html=1;size=25;verticalAlign=top;align=center;fontFamily=Lucida Console;" vertex="1" parent="1">
          <mxGeometry x="310" y="500" width="190" height="60" as="geometry" />
        </mxCell>
        <mxCell id="eEgYe5TqYPnbxPunlfxC-24" value="" style="endArrow=open;html=1;rounded=0;align=center;verticalAlign=bottom;dashed=1;endFill=0;labelBackgroundColor=none;fontFamily=Lucida Console;" edge="1" parent="1">
          <mxGeometry relative="1" as="geometry">
            <mxPoint x="270" y="345.58000000000004" as="sourcePoint" />
            <mxPoint x="380" y="345.58000000000004" as="targetPoint" />
            <mxPoint as="offset" />
          </mxGeometry>
        </mxCell>
        <mxCell id="eEgYe5TqYPnbxPunlfxC-25" value="" style="resizable=0;html=1;align=center;verticalAlign=top;labelBackgroundColor=none;fontFamily=Lucida Console;" connectable="0" vertex="1" parent="eEgYe5TqYPnbxPunlfxC-24">
          <mxGeometry relative="1" as="geometry" />
        </mxCell>
        <mxCell id="eEgYe5TqYPnbxPunlfxC-35" value="依赖" style="edgeLabel;html=1;align=center;verticalAlign=middle;resizable=0;points=[];fontFamily=Lucida Console;" vertex="1" connectable="0" parent="eEgYe5TqYPnbxPunlfxC-24">
          <mxGeometry x="-0.3333" y="1" relative="1" as="geometry">
            <mxPoint as="offset" />
          </mxGeometry>
        </mxCell>
        <mxCell id="eEgYe5TqYPnbxPunlfxC-26" value="" style="endArrow=open;html=1;endSize=12;startArrow=diamondThin;startSize=14;startFill=0;edgeStyle=orthogonalEdgeStyle;align=left;verticalAlign=bottom;rounded=0;fontFamily=Lucida Console;" edge="1" parent="1">
          <mxGeometry x="0.4" y="-16" relative="1" as="geometry">
            <mxPoint x="660" y="345.58" as="sourcePoint" />
            <mxPoint x="560" y="345.58" as="targetPoint" />
            <mxPoint as="offset" />
          </mxGeometry>
        </mxCell>
        <mxCell id="eEgYe5TqYPnbxPunlfxC-33" value="聚合" style="edgeLabel;html=1;align=center;verticalAlign=middle;resizable=0;points=[];fontFamily=Lucida Console;" vertex="1" connectable="0" parent="eEgYe5TqYPnbxPunlfxC-26">
          <mxGeometry x="0.2" y="3" relative="1" as="geometry">
            <mxPoint x="11" y="-4" as="offset" />
          </mxGeometry>
        </mxCell>
        <mxCell id="eEgYe5TqYPnbxPunlfxC-28" value="" style="endArrow=none;dashed=1;html=1;rounded=0;entryX=0.75;entryY=0.538;entryDx=0;entryDy=0;entryPerimeter=0;fontFamily=Lucida Console;" edge="1" parent="1" target="eEgYe5TqYPnbxPunlfxC-11">
          <mxGeometry width="50" height="50" relative="1" as="geometry">
            <mxPoint x="190" y="490" as="sourcePoint" />
            <mxPoint x="210" y="440" as="targetPoint" />
          </mxGeometry>
        </mxCell>
        <mxCell id="eEgYe5TqYPnbxPunlfxC-29" value="" style="endArrow=none;dashed=1;html=1;rounded=0;fontFamily=Lucida Console;" edge="1" parent="1">
          <mxGeometry width="50" height="50" relative="1" as="geometry">
            <mxPoint x="330" y="490" as="sourcePoint" />
            <mxPoint x="250" y="400" as="targetPoint" />
          </mxGeometry>
        </mxCell>
        <mxCell id="eEgYe5TqYPnbxPunlfxC-30" value="负责保存好备忘录Memento" style="shape=note2;boundedLbl=1;whiteSpace=wrap;html=1;size=25;verticalAlign=top;align=center;fontFamily=Lucida Console;" vertex="1" parent="1">
          <mxGeometry x="580" y="500" width="190" height="60" as="geometry" />
        </mxCell>
        <mxCell id="eEgYe5TqYPnbxPunlfxC-31" value="" style="endArrow=none;dashed=1;html=1;rounded=0;fontFamily=Lucida Console;" edge="1" parent="1">
          <mxGeometry width="50" height="50" relative="1" as="geometry">
            <mxPoint x="660" y="490" as="sourcePoint" />
            <mxPoint x="690" y="380" as="targetPoint" />
          </mxGeometry>
        </mxCell>
        <mxCell id="eEgYe5TqYPnbxPunlfxC-37" value="" style="shape=umlLifeline;perimeter=lifelinePerimeter;whiteSpace=wrap;html=1;container=1;dropTarget=0;collapsible=0;recursiveResize=0;outlineConnect=0;portConstraint=eastwest;newEdgeStyle={&quot;edgeStyle&quot;:&quot;elbowEdgeStyle&quot;,&quot;elbow&quot;:&quot;vertical&quot;,&quot;curved&quot;:0,&quot;rounded&quot;:0};participant=umlActor;fontFamily=Lucida Console;" vertex="1" parent="1">
          <mxGeometry x="100" y="860" width="20" height="260" as="geometry" />
        </mxCell>
        <mxCell id="eEgYe5TqYPnbxPunlfxC-38" value="Originator" style="shape=umlLifeline;perimeter=lifelinePerimeter;whiteSpace=wrap;html=1;container=1;dropTarget=0;collapsible=0;recursiveResize=0;outlineConnect=0;portConstraint=eastwest;newEdgeStyle={&quot;edgeStyle&quot;:&quot;elbowEdgeStyle&quot;,&quot;elbow&quot;:&quot;vertical&quot;,&quot;curved&quot;:0,&quot;rounded&quot;:0};fontFamily=Lucida Console;" vertex="1" parent="1">
          <mxGeometry x="220" y="790" width="100" height="330" as="geometry" />
        </mxCell>
        <mxCell id="eEgYe5TqYPnbxPunlfxC-41" value="" style="html=1;points=[];perimeter=orthogonalPerimeter;outlineConnect=0;targetShapes=umlLifeline;portConstraint=eastwest;newEdgeStyle={&quot;edgeStyle&quot;:&quot;elbowEdgeStyle&quot;,&quot;elbow&quot;:&quot;vertical&quot;,&quot;curved&quot;:0,&quot;rounded&quot;:0};fontFamily=Lucida Console;" vertex="1" parent="eEgYe5TqYPnbxPunlfxC-38">
          <mxGeometry x="50" y="110" width="10" height="50" as="geometry" />
        </mxCell>
        <mxCell id="eEgYe5TqYPnbxPunlfxC-39" value="Caretaker（Memento容器）" style="shape=umlLifeline;perimeter=lifelinePerimeter;whiteSpace=wrap;html=1;container=1;dropTarget=0;collapsible=0;recursiveResize=0;outlineConnect=0;portConstraint=eastwest;newEdgeStyle={&quot;edgeStyle&quot;:&quot;elbowEdgeStyle&quot;,&quot;elbow&quot;:&quot;vertical&quot;,&quot;curved&quot;:0,&quot;rounded&quot;:0};fontFamily=Lucida Console;" vertex="1" parent="1">
          <mxGeometry x="420" y="790" width="160" height="330" as="geometry" />
        </mxCell>
        <mxCell id="eEgYe5TqYPnbxPunlfxC-45" value="" style="html=1;points=[];perimeter=orthogonalPerimeter;outlineConnect=0;targetShapes=umlLifeline;portConstraint=eastwest;newEdgeStyle={&quot;edgeStyle&quot;:&quot;elbowEdgeStyle&quot;,&quot;elbow&quot;:&quot;vertical&quot;,&quot;curved&quot;:0,&quot;rounded&quot;:0};fontFamily=Lucida Console;sketch=1;curveFitting=1;jiggle=2;" vertex="1" parent="eEgYe5TqYPnbxPunlfxC-39">
          <mxGeometry x="80" y="160" width="10" height="50" as="geometry" />
        </mxCell>
        <mxCell id="eEgYe5TqYPnbxPunlfxC-40" value="修改 state" style="html=1;verticalAlign=bottom;endArrow=block;edgeStyle=elbowEdgeStyle;elbow=vertical;curved=0;rounded=0;fontFamily=Lucida Console;" edge="1" parent="1" target="eEgYe5TqYPnbxPunlfxC-38">
          <mxGeometry width="80" relative="1" as="geometry">
            <mxPoint x="140" y="900" as="sourcePoint" />
            <mxPoint x="220" y="900" as="targetPoint" />
          </mxGeometry>
        </mxCell>
        <mxCell id="eEgYe5TqYPnbxPunlfxC-42" value="添加 Memento" style="html=1;verticalAlign=bottom;endArrow=block;edgeStyle=elbowEdgeStyle;elbow=vertical;curved=0;rounded=0;fontFamily=Lucida Console;" edge="1" parent="1" target="eEgYe5TqYPnbxPunlfxC-39">
          <mxGeometry x="0.0008" width="80" relative="1" as="geometry">
            <mxPoint x="280" y="950" as="sourcePoint" />
            <mxPoint x="360" y="950" as="targetPoint" />
            <mxPoint as="offset" />
          </mxGeometry>
        </mxCell>
        <mxCell id="eEgYe5TqYPnbxPunlfxC-44" value="创建Memento记录" style="text;html=1;strokeColor=none;fillColor=none;align=center;verticalAlign=middle;whiteSpace=wrap;rounded=0;fontFamily=Lucida Console;" vertex="1" parent="1">
          <mxGeometry x="270" y="900" width="120" height="30" as="geometry" />
        </mxCell>
        <mxCell id="eEgYe5TqYPnbxPunlfxC-46" value="使用 stack&amp;lt;memento&amp;gt; 记录每个用户的快照" style="text;html=1;strokeColor=none;fillColor=none;align=center;verticalAlign=middle;whiteSpace=wrap;rounded=0;fontFamily=Lucida Console;" vertex="1" parent="1">
          <mxGeometry x="510" y="950" width="250" height="30" as="geometry" />
        </mxCell>
        <mxCell id="eEgYe5TqYPnbxPunlfxC-47" value="return" style="html=1;verticalAlign=bottom;endArrow=open;dashed=1;endSize=8;edgeStyle=elbowEdgeStyle;elbow=vertical;curved=0;rounded=0;fontFamily=Lucida Console;" edge="1" parent="1" target="eEgYe5TqYPnbxPunlfxC-38">
          <mxGeometry relative="1" as="geometry">
            <mxPoint x="490" y="1000" as="sourcePoint" />
            <mxPoint x="410" y="1000" as="targetPoint" />
          </mxGeometry>
        </mxCell>
        <mxCell id="eEgYe5TqYPnbxPunlfxC-48" value="return" style="html=1;verticalAlign=bottom;endArrow=open;dashed=1;endSize=8;edgeStyle=elbowEdgeStyle;elbow=vertical;curved=0;rounded=0;fontFamily=Lucida Console;" edge="1" parent="1" target="eEgYe5TqYPnbxPunlfxC-37">
          <mxGeometry relative="1" as="geometry">
            <mxPoint x="270" y="1000" as="sourcePoint" />
            <mxPoint x="50" y="1000" as="targetPoint" />
          </mxGeometry>
        </mxCell>
        <mxCell id="eEgYe5TqYPnbxPunlfxC-49" value="错误示例" style="text;html=1;strokeColor=none;fillColor=none;align=center;verticalAlign=middle;whiteSpace=wrap;rounded=0;fontStyle=1;fontFamily=Lucida Console;fontSize=13;" vertex="1" parent="1">
          <mxGeometry x="70" y="730" width="130" height="50" as="geometry" />
        </mxCell>
        <mxCell id="eEgYe5TqYPnbxPunlfxC-50" value="" style="shape=umlLifeline;perimeter=lifelinePerimeter;whiteSpace=wrap;html=1;container=1;dropTarget=0;collapsible=0;recursiveResize=0;outlineConnect=0;portConstraint=eastwest;newEdgeStyle={&quot;edgeStyle&quot;:&quot;elbowEdgeStyle&quot;,&quot;elbow&quot;:&quot;vertical&quot;,&quot;curved&quot;:0,&quot;rounded&quot;:0};participant=umlActor;fontFamily=Lucida Console;" vertex="1" parent="1">
          <mxGeometry x="90" y="1310" width="20" height="500" as="geometry" />
        </mxCell>
        <mxCell id="eEgYe5TqYPnbxPunlfxC-51" value="Originator" style="shape=umlLifeline;perimeter=lifelinePerimeter;whiteSpace=wrap;html=1;container=1;dropTarget=0;collapsible=0;recursiveResize=0;outlineConnect=0;portConstraint=eastwest;newEdgeStyle={&quot;edgeStyle&quot;:&quot;elbowEdgeStyle&quot;,&quot;elbow&quot;:&quot;vertical&quot;,&quot;curved&quot;:0,&quot;rounded&quot;:0};fontFamily=Lucida Console;" vertex="1" parent="1">
          <mxGeometry x="440" y="1250" width="100" height="590" as="geometry" />
        </mxCell>
        <mxCell id="eEgYe5TqYPnbxPunlfxC-52" value="" style="html=1;points=[];perimeter=orthogonalPerimeter;outlineConnect=0;targetShapes=umlLifeline;portConstraint=eastwest;newEdgeStyle={&quot;edgeStyle&quot;:&quot;elbowEdgeStyle&quot;,&quot;elbow&quot;:&quot;vertical&quot;,&quot;curved&quot;:0,&quot;rounded&quot;:0};fontFamily=Lucida Console;" vertex="1" parent="eEgYe5TqYPnbxPunlfxC-51">
          <mxGeometry x="50" y="130" width="10" height="30" as="geometry" />
        </mxCell>
        <mxCell id="eEgYe5TqYPnbxPunlfxC-71" value="" style="html=1;points=[];perimeter=orthogonalPerimeter;outlineConnect=0;targetShapes=umlLifeline;portConstraint=eastwest;newEdgeStyle={&quot;edgeStyle&quot;:&quot;elbowEdgeStyle&quot;,&quot;elbow&quot;:&quot;vertical&quot;,&quot;curved&quot;:0,&quot;rounded&quot;:0};fontFamily=Lucida Console;" vertex="1" parent="eEgYe5TqYPnbxPunlfxC-51">
          <mxGeometry x="50" y="190" width="10" height="30" as="geometry" />
        </mxCell>
        <mxCell id="eEgYe5TqYPnbxPunlfxC-53" value="Caretaker（Memento容器）" style="shape=umlLifeline;perimeter=lifelinePerimeter;whiteSpace=wrap;html=1;container=1;dropTarget=0;collapsible=0;recursiveResize=0;outlineConnect=0;portConstraint=eastwest;newEdgeStyle={&quot;edgeStyle&quot;:&quot;elbowEdgeStyle&quot;,&quot;elbow&quot;:&quot;vertical&quot;,&quot;curved&quot;:0,&quot;rounded&quot;:0};fontFamily=Lucida Console;" vertex="1" parent="1">
          <mxGeometry x="630" y="1250" width="160" height="590" as="geometry" />
        </mxCell>
        <mxCell id="eEgYe5TqYPnbxPunlfxC-54" value="" style="html=1;points=[];perimeter=orthogonalPerimeter;outlineConnect=0;targetShapes=umlLifeline;portConstraint=eastwest;newEdgeStyle={&quot;edgeStyle&quot;:&quot;elbowEdgeStyle&quot;,&quot;elbow&quot;:&quot;vertical&quot;,&quot;curved&quot;:0,&quot;rounded&quot;:0};fontFamily=Lucida Console;" vertex="1" parent="eEgYe5TqYPnbxPunlfxC-53">
          <mxGeometry x="80" y="250" width="10" height="30" as="geometry" />
        </mxCell>
        <mxCell id="eEgYe5TqYPnbxPunlfxC-80" value="" style="html=1;points=[];perimeter=orthogonalPerimeter;outlineConnect=0;targetShapes=umlLifeline;portConstraint=eastwest;newEdgeStyle={&quot;edgeStyle&quot;:&quot;elbowEdgeStyle&quot;,&quot;elbow&quot;:&quot;vertical&quot;,&quot;curved&quot;:0,&quot;rounded&quot;:0};fontFamily=Lucida Console;" vertex="1" parent="eEgYe5TqYPnbxPunlfxC-53">
          <mxGeometry x="80" y="430" width="10" height="30" as="geometry" />
        </mxCell>
        <mxCell id="eEgYe5TqYPnbxPunlfxC-55" value="修改 state" style="html=1;verticalAlign=bottom;endArrow=block;edgeStyle=elbowEdgeStyle;elbow=vertical;curved=0;rounded=0;fontFamily=Lucida Console;" edge="1" parent="1">
          <mxGeometry width="80" relative="1" as="geometry">
            <mxPoint x="130" y="1350" as="sourcePoint" />
            <mxPoint x="290" y="1350" as="targetPoint" />
          </mxGeometry>
        </mxCell>
        <mxCell id="eEgYe5TqYPnbxPunlfxC-58" value="使用 stack&amp;lt;memento&amp;gt; 记录每个快照" style="text;html=1;strokeColor=none;fillColor=none;align=center;verticalAlign=middle;whiteSpace=wrap;rounded=0;fontFamily=Lucida Console;" vertex="1" parent="1">
          <mxGeometry x="720" y="1500" width="250" height="30" as="geometry" />
        </mxCell>
        <mxCell id="eEgYe5TqYPnbxPunlfxC-62" value="StateService" style="shape=umlLifeline;perimeter=lifelinePerimeter;whiteSpace=wrap;html=1;container=1;dropTarget=0;collapsible=0;recursiveResize=0;outlineConnect=0;portConstraint=eastwest;newEdgeStyle={&quot;edgeStyle&quot;:&quot;elbowEdgeStyle&quot;,&quot;elbow&quot;:&quot;vertical&quot;,&quot;curved&quot;:0,&quot;rounded&quot;:0};fontFamily=Lucida Console;" vertex="1" parent="1">
          <mxGeometry x="240" y="1250" width="100" height="590" as="geometry" />
        </mxCell>
        <mxCell id="eEgYe5TqYPnbxPunlfxC-63" value="" style="html=1;points=[];perimeter=orthogonalPerimeter;outlineConnect=0;targetShapes=umlLifeline;portConstraint=eastwest;newEdgeStyle={&quot;edgeStyle&quot;:&quot;elbowEdgeStyle&quot;,&quot;elbow&quot;:&quot;vertical&quot;,&quot;curved&quot;:0,&quot;rounded&quot;:0};fontFamily=Lucida Console;" vertex="1" parent="eEgYe5TqYPnbxPunlfxC-62">
          <mxGeometry x="50" y="100" width="10" height="200" as="geometry" />
        </mxCell>
        <mxCell id="eEgYe5TqYPnbxPunlfxC-67" value="" style="html=1;points=[];perimeter=orthogonalPerimeter;outlineConnect=0;targetShapes=umlLifeline;portConstraint=eastwest;newEdgeStyle={&quot;edgeStyle&quot;:&quot;elbowEdgeStyle&quot;,&quot;elbow&quot;:&quot;vertical&quot;,&quot;curved&quot;:0,&quot;rounded&quot;:0};fontFamily=Lucida Console;" vertex="1" parent="eEgYe5TqYPnbxPunlfxC-62">
          <mxGeometry x="60" y="190" width="10" height="30" as="geometry" />
        </mxCell>
        <mxCell id="eEgYe5TqYPnbxPunlfxC-73" value="" style="html=1;points=[];perimeter=orthogonalPerimeter;outlineConnect=0;targetShapes=umlLifeline;portConstraint=eastwest;newEdgeStyle={&quot;edgeStyle&quot;:&quot;elbowEdgeStyle&quot;,&quot;elbow&quot;:&quot;vertical&quot;,&quot;curved&quot;:0,&quot;rounded&quot;:0};fontFamily=Lucida Console;" vertex="1" parent="eEgYe5TqYPnbxPunlfxC-62">
          <mxGeometry x="60" y="240" width="10" height="40" as="geometry" />
        </mxCell>
        <mxCell id="eEgYe5TqYPnbxPunlfxC-64" value="修改 state" style="html=1;verticalAlign=bottom;endArrow=block;edgeStyle=elbowEdgeStyle;elbow=vertical;curved=0;rounded=0;fontFamily=Lucida Console;" edge="1" parent="1" source="eEgYe5TqYPnbxPunlfxC-63" target="eEgYe5TqYPnbxPunlfxC-51">
          <mxGeometry x="0.0026" width="80" relative="1" as="geometry">
            <mxPoint x="310" y="1380" as="sourcePoint" />
            <mxPoint x="470" y="1380" as="targetPoint" />
            <Array as="points">
              <mxPoint x="310" y="1380" />
            </Array>
            <mxPoint as="offset" />
          </mxGeometry>
        </mxCell>
        <mxCell id="eEgYe5TqYPnbxPunlfxC-65" value="setState()" style="text;html=1;strokeColor=none;fillColor=none;align=center;verticalAlign=middle;whiteSpace=wrap;rounded=0;fontFamily=Lucida Console;" vertex="1" parent="1">
          <mxGeometry x="510" y="1380" width="80" height="30" as="geometry" />
        </mxCell>
        <mxCell id="eEgYe5TqYPnbxPunlfxC-66" value="return" style="html=1;verticalAlign=bottom;endArrow=open;dashed=1;endSize=8;edgeStyle=elbowEdgeStyle;elbow=vertical;curved=0;rounded=0;fontFamily=Lucida Console;" edge="1" parent="1">
          <mxGeometry relative="1" as="geometry">
            <mxPoint x="490" y="1410" as="sourcePoint" />
            <mxPoint x="300" y="1410" as="targetPoint" />
          </mxGeometry>
        </mxCell>
        <mxCell id="eEgYe5TqYPnbxPunlfxC-68" value="获取当前 state的创建memento" style="html=1;verticalAlign=bottom;endArrow=block;edgeStyle=elbowEdgeStyle;elbow=vertical;curved=0;rounded=0;fontFamily=Lucida Console;" edge="1" parent="1">
          <mxGeometry x="0.0026" width="80" relative="1" as="geometry">
            <mxPoint x="310" y="1440" as="sourcePoint" />
            <mxPoint x="490" y="1440" as="targetPoint" />
            <Array as="points">
              <mxPoint x="320" y="1440" />
            </Array>
            <mxPoint as="offset" />
          </mxGeometry>
        </mxCell>
        <mxCell id="eEgYe5TqYPnbxPunlfxC-69" value="return" style="html=1;verticalAlign=bottom;endArrow=open;dashed=1;endSize=8;edgeStyle=elbowEdgeStyle;elbow=vertical;curved=0;rounded=0;fontFamily=Lucida Console;" edge="1" parent="1">
          <mxGeometry relative="1" as="geometry">
            <mxPoint x="487.5000000000002" y="1470.3333333333335" as="sourcePoint" />
            <mxPoint x="308" y="1470.3333333333335" as="targetPoint" />
          </mxGeometry>
        </mxCell>
        <mxCell id="eEgYe5TqYPnbxPunlfxC-72" value="saveMemento(),返回new Memento()" style="text;html=1;strokeColor=#82b366;fillColor=#d5e8d4;align=center;verticalAlign=middle;whiteSpace=wrap;rounded=0;fontFamily=Lucida Console;" vertex="1" parent="1">
          <mxGeometry x="500" y="1440" width="160" height="30" as="geometry" />
        </mxCell>
        <mxCell id="eEgYe5TqYPnbxPunlfxC-74" value="将新memento保存到 容器中" style="html=1;verticalAlign=bottom;endArrow=block;edgeStyle=elbowEdgeStyle;elbow=vertical;curved=0;rounded=0;fontFamily=Lucida Console;" edge="1" parent="1" target="eEgYe5TqYPnbxPunlfxC-53">
          <mxGeometry width="80" relative="1" as="geometry">
            <mxPoint x="310" y="1500" as="sourcePoint" />
            <mxPoint x="390" y="1500" as="targetPoint" />
          </mxGeometry>
        </mxCell>
        <mxCell id="eEgYe5TqYPnbxPunlfxC-75" value="return" style="html=1;verticalAlign=bottom;endArrow=open;dashed=1;endSize=8;edgeStyle=elbowEdgeStyle;elbow=vertical;curved=0;rounded=0;fontFamily=Lucida Console;" edge="1" parent="1">
          <mxGeometry relative="1" as="geometry">
            <mxPoint x="705.5000000000002" y="1529.3333333333335" as="sourcePoint" />
            <mxPoint x="314" y="1529.3333333333335" as="targetPoint" />
          </mxGeometry>
        </mxCell>
        <mxCell id="eEgYe5TqYPnbxPunlfxC-76" value="return" style="html=1;verticalAlign=bottom;endArrow=open;dashed=1;endSize=8;edgeStyle=elbowEdgeStyle;elbow=vertical;curved=0;rounded=0;fontFamily=Lucida Console;" edge="1" parent="1" target="eEgYe5TqYPnbxPunlfxC-50">
          <mxGeometry relative="1" as="geometry">
            <mxPoint x="280" y="1550" as="sourcePoint" />
            <mxPoint x="200" y="1550" as="targetPoint" />
          </mxGeometry>
        </mxCell>
        <mxCell id="eEgYe5TqYPnbxPunlfxC-79" value="" style="html=1;points=[];perimeter=orthogonalPerimeter;outlineConnect=0;targetShapes=umlLifeline;portConstraint=eastwest;newEdgeStyle={&quot;edgeStyle&quot;:&quot;elbowEdgeStyle&quot;,&quot;elbow&quot;:&quot;vertical&quot;,&quot;curved&quot;:0,&quot;rounded&quot;:0};fontFamily=Lucida Console;" vertex="1" parent="1">
          <mxGeometry x="490" y="1740" width="10" height="30" as="geometry" />
        </mxCell>
        <mxCell id="eEgYe5TqYPnbxPunlfxC-81" value="回滚" style="html=1;verticalAlign=bottom;endArrow=block;edgeStyle=elbowEdgeStyle;elbow=vertical;curved=0;rounded=0;fontFamily=Lucida Console;" edge="1" parent="1">
          <mxGeometry width="80" relative="1" as="geometry">
            <mxPoint x="130" y="1650" as="sourcePoint" />
            <mxPoint x="290" y="1650" as="targetPoint" />
          </mxGeometry>
        </mxCell>
        <mxCell id="eEgYe5TqYPnbxPunlfxC-82" value="memento出栈操作" style="text;html=1;strokeColor=none;fillColor=none;align=center;verticalAlign=middle;whiteSpace=wrap;rounded=0;fontFamily=Lucida Console;" vertex="1" parent="1">
          <mxGeometry x="710" y="1680" width="140" height="30" as="geometry" />
        </mxCell>
        <mxCell id="eEgYe5TqYPnbxPunlfxC-83" value="" style="html=1;points=[];perimeter=orthogonalPerimeter;outlineConnect=0;targetShapes=umlLifeline;portConstraint=eastwest;newEdgeStyle={&quot;edgeStyle&quot;:&quot;elbowEdgeStyle&quot;,&quot;elbow&quot;:&quot;vertical&quot;,&quot;curved&quot;:0,&quot;rounded&quot;:0};fontFamily=Lucida Console;" vertex="1" parent="1">
          <mxGeometry x="290" y="1650" width="10" height="140" as="geometry" />
        </mxCell>
        <mxCell id="eEgYe5TqYPnbxPunlfxC-84" value="" style="html=1;points=[];perimeter=orthogonalPerimeter;outlineConnect=0;targetShapes=umlLifeline;portConstraint=eastwest;newEdgeStyle={&quot;edgeStyle&quot;:&quot;elbowEdgeStyle&quot;,&quot;elbow&quot;:&quot;vertical&quot;,&quot;curved&quot;:0,&quot;rounded&quot;:0};fontFamily=Lucida Console;" vertex="1" parent="1">
          <mxGeometry x="300" y="1740" width="10" height="30" as="geometry" />
        </mxCell>
        <mxCell id="eEgYe5TqYPnbxPunlfxC-86" value="获取 memento" style="html=1;verticalAlign=bottom;endArrow=block;edgeStyle=elbowEdgeStyle;elbow=vertical;curved=0;rounded=0;fontFamily=Lucida Console;" edge="1" parent="1" source="eEgYe5TqYPnbxPunlfxC-83" target="eEgYe5TqYPnbxPunlfxC-53">
          <mxGeometry width="80" relative="1" as="geometry">
            <mxPoint x="310" y="1680" as="sourcePoint" />
            <mxPoint x="490" y="1680" as="targetPoint" />
            <Array as="points">
              <mxPoint x="310" y="1680" />
            </Array>
            <mxPoint as="offset" />
          </mxGeometry>
        </mxCell>
        <mxCell id="eEgYe5TqYPnbxPunlfxC-89" value="传入memento" style="html=1;verticalAlign=bottom;endArrow=block;edgeStyle=elbowEdgeStyle;elbow=vertical;curved=0;rounded=0;fontFamily=Lucida Console;" edge="1" parent="1">
          <mxGeometry x="0.0026" width="80" relative="1" as="geometry">
            <mxPoint x="310" y="1740" as="sourcePoint" />
            <mxPoint x="490" y="1740" as="targetPoint" />
            <Array as="points">
              <mxPoint x="320" y="1740" />
            </Array>
            <mxPoint as="offset" />
          </mxGeometry>
        </mxCell>
        <mxCell id="eEgYe5TqYPnbxPunlfxC-90" value="return" style="html=1;verticalAlign=bottom;endArrow=open;dashed=1;endSize=8;edgeStyle=elbowEdgeStyle;elbow=vertical;curved=0;rounded=0;fontFamily=Lucida Console;" edge="1" parent="1" target="eEgYe5TqYPnbxPunlfxC-83">
          <mxGeometry relative="1" as="geometry">
            <mxPoint x="699.5000000000002" y="1710.0033333333336" as="sourcePoint" />
            <mxPoint x="520" y="1710.0033333333336" as="targetPoint" />
          </mxGeometry>
        </mxCell>
        <mxCell id="eEgYe5TqYPnbxPunlfxC-91" value="getMemento()，将memento.state赋值给state" style="text;html=1;strokeColor=#82b366;fillColor=#d5e8d4;align=center;verticalAlign=middle;whiteSpace=wrap;rounded=0;fontFamily=Lucida Console;" vertex="1" parent="1">
          <mxGeometry x="500" y="1740" width="190" height="40" as="geometry" />
        </mxCell>
        <mxCell id="eEgYe5TqYPnbxPunlfxC-93" value="return" style="html=1;verticalAlign=bottom;endArrow=open;dashed=1;endSize=8;edgeStyle=elbowEdgeStyle;elbow=vertical;curved=0;rounded=0;fontFamily=Lucida Console;" edge="1" parent="1">
          <mxGeometry relative="1" as="geometry">
            <mxPoint x="486" y="1769.17" as="sourcePoint" />
            <mxPoint x="320" y="1769.5033333333336" as="targetPoint" />
          </mxGeometry>
        </mxCell>
        <mxCell id="eEgYe5TqYPnbxPunlfxC-94" value="return" style="html=1;verticalAlign=bottom;endArrow=open;dashed=1;endSize=8;edgeStyle=elbowEdgeStyle;elbow=vertical;curved=0;rounded=0;fontFamily=Lucida Console;" edge="1" parent="1">
          <mxGeometry relative="1" as="geometry">
            <mxPoint x="290" y="1790" as="sourcePoint" />
            <mxPoint x="110" y="1790" as="targetPoint" />
          </mxGeometry>
        </mxCell>
      </root>
    </mxGraphModel>
  </diagram>
</mxfile>
